HIERARCHY
ROOT Hips
{
  OFFSET 13.6774 106.653 -34.4427
  CHANNELS 6 Xposition Yposition Zposition Zrotation Xrotation Yrotation
  JOINT ToSpine
  {
    OFFSET -2.69724 7.43032 -0.144315
    CHANNELS 3 Zrotation Xrotation Yrotation
    JOINT Spine
    {
      OFFSET -0.0310711 10.7595 1.96963
      CHANNELS 3 Zrotation Xrotation Yrotation
      JOINT Spine1
      {
        OFFSET 19.9056 3.91189 0.764692
        CHANNELS 3 Zrotation Xrotation Yrotation
        JOINT Neck
        {
          OFFSET 25.9749 7.03908 -0.130764
          CHANNELS 3 Zrotation Xrotation Yrotation
          JOINT Head
          {
            OFFSET 9.52751 0.295786 -0.907742
            CHANNELS 3 Zrotation Xrotation Yrotation
            End Site
            {
              OFFSET 16.4037 0.713936 2.7358
            }
          }
        }
        JOINT LeftShoulder
        {
          OFFSET 17.7449 4.33886 11.7777
          CHANNELS 3 Zrotation Xrotation Yrotation
          JOINT LeftArm
          {
            OFFSET 0.911315 1.27913 9.80584
            CHANNELS 3 Zrotation Xrotation Yrotation
            JOINT LeftForeArm
            {
              OFFSET 28.6126 1.18197 -3.53199
              CHANNELS 3 Zrotation Xrotation Yrotation
              JOINT LeftHand
              {
                OFFSET 27.5088 0.0218783 0.327423
                CHANNELS 3 Zrotation Xrotation Yrotation
                End Site
                {
                  OFFSET 18.6038 -0.000155887 0.382096
                }
              }
            }
          }
        }
        JOINT RightShoulder
        {
          OFFSET 17.1009 2.89543 -12.2328
          CHANNELS 3 Zrotation Xrotation Yrotation
          JOINT RightArm
          {
            OFFSET 1.4228 0.178766 -10.211
            CHANNELS 3 Zrotation Xrotation Yrotation
            JOINT RightForeArm
            {
              OFFSET 28.733 1.87905 2.64907
              CHANNELS 3 Zrotation Xrotation Yrotation
              JOINT RightHand
              {
                OFFSET 27.4588 0.290562 -0.101845
                CHANNELS 3 Zrotation Xrotation Yrotation
                End Site
                {
                  OFFSET 17.8396 -0.255518 -0.000602873
                }
              }
            }
          }
        }
      }
    }
  }
  JOINT LeftUpLeg
  {
    OFFSET -5.61296 -2.22332 -10.2353
    CHANNELS 3 Zrotation Xrotation Yrotation
    JOINT LeftLeg
    {
      OFFSET 2.56703 -44.7417 -7.93097
      CHANNELS 3 Zrotation Xrotation Yrotation
      JOINT LeftFoot
      {
        OFFSET 3.16933 -46.5642 -3.96578
        CHANNELS 3 Zrotation Xrotation Yrotation
        JOINT LeftToeBase
        {
          OFFSET 0.346054 -6.02161 12.8035
          CHANNELS 3 Zrotation Xrotation Yrotation
          End Site
          {
            OFFSET 0.134235 -1.35082 5.13018
          }
        }
      }
    }
  }
  JOINT RightUpLeg
  {
    OFFSET -5.7928 -1.72406 10.6446
    CHANNELS 3 Zrotation Xrotation Yrotation
    JOINT RightLeg
    {
      OFFSET -2.57161 -44.7178 -7.85259
      CHANNELS 3 Zrotation Xrotation Yrotation
      JOINT RightFoot
      {
        OFFSET -3.10148 -46.5936 -4.03391
        CHANNELS 3 Zrotation Xrotation Yrotation
        JOINT RightToeBase
        {
          OFFSET -0.0828122 -6.13587 12.8035
          CHANNELS 3 Zrotation Xrotation Yrotation
          End Site
          {
            OFFSET -0.131328 -1.35082 5.13018
          }
        }
      }
    }
  }
}
MOTION
Frames: 6
Frame Time: 0.03333333333333333
0.0000 93.1000 0.0000 -99.6565 -12.4173 139.7261 -71.1651 -0.1019 88.4616 170.4933 50.0567 -85.2361 3.7436 38.0550 -22.2608 -131.2510 16.9087 -153.9933 -148.9417 49.8537 -159.6028 -0.5835 -14.8430 -20.4433 -110.9250 27.0557 -87.7873 -1.3360 -1.6483 -58.4097 0.0432 -0.1206 0.3018 1.2036 16.3167 -0.7541 -116.1785 -22.4606 110.7601 2.8309 -59.9028 7.6218 3.4777 0.1610 -0.5604 16.1679 0.7723 81.4073 1.4855 21.3208 -20.1590 -12.7033 -6.3749 0.1043 -4.9581 7.2377 -0.2828 -62.5880 -39.6403 56.3291 -2.5586 42.9906 -21.4872 -25.7812 -19.6578 -0.0856 1.1953 -24.1041 -36.6662 
0.0000 93.1000 0.0000 -104.7261 -22.6920 136.8417 -71.0949 -0.0131 88.2339 158.7438 52.5733 -83.6059 4.0899 34.2111 -20.8541 -128.9809 17.1351 -155.7730 -146.9474 50.1005 -156.2048 -0.0424 -14.4909 -14.2712 -116.9839 22.1760 -97.6733 -4.7847 -3.2213 -56.3268 -0.1038 0.1870 -0.0968 0.9254 15.8915 3.8249 -107.5583 -17.6729 106.7122 -3.6165 -64.1854 2.7824 2.9530 -0.4834 -1.0955 18.8713 11.1851 76.6130 3.4783 19.1819 -18.5610 -12.0449 -7.3030 -0.3150 -6.5459 9.4229 4.5821 -65.8038 -34.4526 63.3154 -1.5748 41.1978 -17.7747 -26.1958 -13.0967 0.7980 -0.0688 -27.1123 -24.5223 
0.0000 93.1000 0.0000 -107.7898 -31.1622 134.7579 -71.0848 -0.1700 87.9989 147.9018 57.2115 -81.5409 3.8010 30.0894 -17.4726 -127.2542 16.4406 -155.3630 -148.4058 49.6875 -150.6483 0.4993 -13.1275 -7.5110 -126.1863 16.8553 -105.5907 -1.8198 -1.1583 -53.8180 -0.1800 0.2619 -0.4968 -0.1549 14.9718 10.3030 -96.8801 -15.3647 99.6363 -1.5023 -62.3339 7.7555 2.1452 -0.7678 -0.9680 21.0841 23.5696 68.1394 4.3872 20.0211 -13.3135 -13.7566 -14.6585 -1.4372 -12.2030 18.5555 11.2768 -66.9046 -27.9308 76.2510 -0.5104 40.0813 -5.9324 -24.6069 -7.3484 1.5299 -0.4516 -33.0012 -26.8591 
0.0000 93.1000 0.0000 -108.8180 -43.0953 134.6222 -71.1994 0.0660 87.9347 131.0056 62.1909 -70.3613 3.7175 24.9207 -14.3024 -122.8667 15.4147 -156.0855 -145.6963 47.7662 -150.0001 0.8426 -11.1687 -3.1062 -134.2999 15.3317 -112.6562 3.9841 2.8050 -54.4578 -0.0507 0.3516 -0.5663 -1.5973 12.8127 21.0158 -75.3951 -12.6568 91.8355 8.5517 -51.6797 23.3270 0.9961 -1.0043 -0.7026 25.1235 32.7477 61.7327 3.4678 19.1834 -20.3400 -14.5864 -18.3356 -2.1693 -7.8592 5.2936 20.0209 -66.2607 -21.0473 83.3821 1.3804 37.1511 -1.6921 -23.8403 -4.2967 2.2654 -0.8240 -37.5788 -30.3693 
0.0000 93.1000 0.0000 -113.8915 -58.0961 133.1117 -71.6486 -0.1776 88.2129 107.6461 63.9495 -50.1870 3.0604 18.2077 -11.1632 -118.0276 14.1724 -154.4872 -145.5391 46.0858 -148.3409 0.7657 -8.0251 0.0423 -137.1909 17.7249 -118.6965 7.0788 4.0398 -56.6820 -0.5778 0.0533 -0.0621 -3.1747 10.4246 32.8486 -55.0917 -10.0564 83.4574 8.8329 -39.6621 27.0812 0.5285 -0.3823 -0.7528 26.7220 35.0480 60.3944 4.3553 18.2877 -17.2238 -10.3108 -7.4472 -1.3428 0.7078 -5.1970 -10.5633 -66.0012 -17.9916 82.9683 1.2796 33.2828 4.7944 -19.9762 -0.8762 1.6903 -1.0123 -38.0414 -30.9386 
0.0000 93.1000 0.0000 -113.6218 -69.1704 134.3140 -71.0199 -0.6354 88.0142 88.8339 64.3346 -31.0050 3.2205 14.5906 -10.2364 -115.0156 12.9363 -156.1297 -147.1665 44.8940 -147.3030 -0.0773 -4.6069 2.7820 -133.0706 26.0074 -123.8690 4.1029 2.0570 -57.3179 -0.0960 -0.2801 -0.0028 -3.3235 9.3112 36.2146 -73.9543 -13.0598 70.4445 6.9497 -61.5244 22.4208 0.8421 -0.1374 0.6533 28.9390 36.7214 47.6473 -2.1215 32.2380 15.0557 -11.0318 -15.1546 -1.9689 -8.3917 13.7475 6.5189 -62.8871 -14.0169 88.8972 2.6679 32.1207 10.9647 -18.7839 0.5083 1.7119 -1.6595 -40.9130 -32.9516 
